<svg xmlns:dc="http://purl.org/dc/elements/1.1/" xmlns:cc="http://creativecommons.org/ns#" xmlns:rdf="http://www.w3.org/1999/02/22-rdf-syntax-ns#" xmlns:svg="http://www.w3.org/2000/svg" xmlns="http://www.w3.org/2000/svg" xmlns:sodipodi="http://sodipodi.sourceforge.net/DTD/sodipodi-0.dtd" xmlns:inkscape="http://www.inkscape.org/namespaces/inkscape" version="1.1" id="svg2" width="607.05133" height="617.12329" viewBox="0 0 809.05133 823.12329" sodipodi:docname="MLOK2.svg" inkscape:version="0.92.4 (5da689c313, 2019-01-14)">
  <metadata id="metadata8">
    <rdf:rdf>
      <cc:work rdf:about="">
        <dc:format>image/svg+xml</dc:format>
        <dc:type rdf:resource="http://purl.org/dc/dcmitype/StillImage"></dc:type>
        <dc:title></dc:title>
      </cc:work>
    </rdf:rdf>
  </metadata>
  <defs id="defs6"></defs>
  <sodipodi:namedview pagecolor="#ffffff" bordercolor="#666666" borderopacity="1" objecttolerance="10" gridtolerance="10" guidetolerance="10" inkscape:pageopacity="0" inkscape:pageshadow="2" inkscape:window-width="1920" inkscape:window-height="1001" id="namedview4" showgrid="false" inkscape:pagecheckerboard="true" inkscape:zoom="0.35355339" inkscape:cx="1036.5602" inkscape:cy="360.06222" inkscape:window-x="-9" inkscape:window-y="-9" inkscape:window-maximized="1" inkscape:current-layer="svg2" fit-margin-top="0" fit-margin-left="0" fit-margin-right="0" fit-margin-bottom="0"></sodipodi:namedview>
  <g id="g78" transform="translate(1096.6949,-33.497294)">
    <g id="g69">
      <path style="fill:#000000;stroke:none" d="m -544.35374,855.95433 c -20.27176,-3.5823 -36.73564,-19.16507 -40.8719,-38.68452 -2.06183,-9.73001 -2.08726,-99.69046 -0.0309,-109.39181 4.96151,-23.40728 24.53481,-39.02944 49.06165,-39.15787 24.53564,-0.12848 42.39105,13.43586 49.17856,37.35983 1.65092,5.81902 1.82144,11.05405 1.82144,55.92004 0,54.84765 -0.21158,57.05033 -6.63807,69.10766 -9.29602,17.44112 -32.44781,28.39384 -52.52075,24.84667 z m 20.39869,-28.4134 c 6.23382,-2.90229 10.5795,-8.94538 12.26246,-17.05217 0.72464,-3.49054 0.99222,-20.72337 0.79498,-51.19816 0.0651,-16.72862 2.17887,-36.90905 -3.31263,-51.83032 -4.08168,-7.97794 -9.69912,-11.52801 -19.33189,-12.21724 -11.71908,-0.83849 -19.95308,3.35072 -24.56073,12.49577 -3.10262,6.15793 -3.74324,17.7274 -3.3392,60.30493 0.28229,29.74792 0.7506,42.55719 1.65817,45.35438 2.53639,7.81734 7.95275,13.54162 14.73743,15.57526 5.97435,1.79074 15.56778,1.13919 21.09141,-1.43245 z" id="path12" inkscape:connector-curvature="0" sodipodi:nodetypes="cscssssccsccccssscs"></path>
      <path style="fill:#000000;stroke:none;stroke-width:1px;stroke-linecap:butt;stroke-linejoin:miter;stroke-opacity:1" d="m -1096.6949,855 h 26.9837 l 0.5163,-115.183 37.5261,88.31116 h 22.9318 L -971.91827,739.817 -970.69492,855 H -943.711 V 670 h -25.5 L -1020.195,789.59084 -1071.1949,670 h -25.5 z" id="path854" inkscape:connector-curvature="0" sodipodi:nodetypes="cccccccccccccc"></path>
      <path style="fill:#000000;stroke:none;stroke-width:1px;stroke-linecap:butt;stroke-linejoin:miter;stroke-opacity:1" d="m -879.69492,770 h 75 v 26 h -75 z" id="path856" inkscape:connector-curvature="0"></path>
      <path style="fill:#000000;stroke:none;stroke-width:1px;stroke-linecap:butt;stroke-linejoin:miter;stroke-opacity:1" d="m -747.69492,670 h 27 v 159 h 87 v 26 h -114 z" id="path858" inkscape:connector-curvature="0"></path>
      <path style="fill:#000000;stroke:none;stroke-width:1px;stroke-linecap:butt;stroke-linejoin:miter;stroke-opacity:1" d="m -426.69492,670 v 185 h 27 V 798.73169 L -368.08214,764.71883 -319.52531,855 h 31.88175 L -350.65021,742.91908 -293.375,670 h -32.14723 L -399.19492,765.35653 -399.71431,670 Z" id="path860" inkscape:connector-curvature="0" sodipodi:nodetypes="ccccccccccccc"></path>
    </g>
    <path style="fill:#000000;fill-opacity:1;stroke:none;stroke-width:1.00044715;stroke-linecap:butt;stroke-linejoin:miter;stroke-miterlimit:4;stroke-dasharray:none;stroke-opacity:1" d="m -1096.028,561.333 h 91.4226 V 203.25896 l 261.73519,170.61219 v 95.48492 l -109.04869,-0.064 v 92.04111 h 312.13947 V 469.29206 H -648.82812 V 373.87141 L -385.71058,203.25913 V 561.3332 h 91.42371 L -294.28766,33.497294 -694.84873,292.41483 -1096.028,33.497294 Z" id="path821-4-0" inkscape:connector-curvature="0" sodipodi:nodetypes="cccccccccccccccccc"></path>
  </g>
</svg>